<svg xmlns="http://www.w3.org/2000/svg" viewBox="0 0 67.02 92.85"><defs><style>.cls-1{fill:#ad7c1c;}.cls-2{fill:#d6af36;}</style></defs><title>Daily_Silver2</title><g id="Layer_2" data-name="Layer 2"><g id="Layer_1-2" data-name="Layer 1"><polygon class="cls-1" points="33.7 78.64 53.22 92.58 53.22 53.42 13.8 53.42 13.8 92.85 33.7 78.64"/><path class="cls-2" d="M33.51,64A30.51,30.51,0,0,1,11.94,11.94,30.5,30.5,0,1,1,55.08,55.08,30.27,30.27,0,0,1,33.51,64Z"/><path class="cls-1" d="M33.51,6A27.51,27.51,0,0,1,53,53a27.51,27.51,0,0,1-38.9-38.9A27.3,27.3,0,0,1,33.51,6m0-6a33.51,33.51,0,1,0,23.7,9.81A33.43,33.43,0,0,0,33.51,0Z"/><path class="cls-1" d="M20.24,48.57c.08-.36.16-.71.23-1.06.19-.9.38-1.8.55-2.71.14-.69.26-1.39.37-2.09.07-.51.13-1,.15-1.54,0-.7.08-1.4.06-2.09a6.78,6.78,0,0,0-.2-1.85c-.18-.58-.57-.83-1.08-.69-.68.19-1.36.42-2,.6a8.05,8.05,0,0,1-1,.17,2.88,2.88,0,0,1-1.53-.21,3.23,3.23,0,0,1-1-.66,4.07,4.07,0,0,1-1.29-2.59,9.17,9.17,0,0,1,0-1.17,4.22,4.22,0,0,1,.73-2.2A3.58,3.58,0,0,1,16.42,29a3.62,3.62,0,0,1,1.95.16c.55.2,1.09.44,1.63.66a1.08,1.08,0,0,0,1,0,1.14,1.14,0,0,0,.48-.72,12.74,12.74,0,0,0,.22-1.26,3.67,3.67,0,0,0,0-.74c0-.54-.08-1.07-.15-1.6-.1-.74-.21-1.48-.34-2.22s-.26-1.33-.4-2c-.2-.91-.41-1.82-.62-2.76l.71-.23c.6-.17,1.19-.35,1.79-.5.79-.21,1.58-.4,2.37-.58.45-.11.9-.21,1.35-.28s.71-.08,1.07-.11c.11,0,.21,0,.32,0a4.52,4.52,0,0,1,1.74.29,1.11,1.11,0,0,1,.76,1.25,3.22,3.22,0,0,1-.23.9,11.9,11.9,0,0,0-.59,2.12,5.27,5.27,0,0,0,0,1.43,4.55,4.55,0,0,0,.6,1.75A3.33,3.33,0,0,0,31.8,26a4.29,4.29,0,0,0,1.13.24,3.52,3.52,0,0,0,1.48-.2A3.37,3.37,0,0,0,36,24.83a4.37,4.37,0,0,0,.78-1.69,5,5,0,0,0,.05-1.5,11.23,11.23,0,0,0-.43-2,6.22,6.22,0,0,1-.26-1.43.93.93,0,0,1,.66-1,4,4,0,0,1,.91-.18A12,12,0,0,1,39.13,17c.55,0,1.11.07,1.66.13a19.91,19.91,0,0,1,2.94.6c1,.26,2,.53,3,.81l0,0c0,.27-.11.54-.17.81-.22,1.1-.45,2.19-.67,3.29-.12.66-.24,1.32-.33,2-.07.46-.1.92-.13,1.38s-.07,1.15-.06,1.72.08,1.25.16,1.88a1.13,1.13,0,0,0,.44.84.76.76,0,0,0,.63.12l2.22-.65a3.86,3.86,0,0,1,1.35-.17,3.26,3.26,0,0,1,2.05.91,4,4,0,0,1,.94,1.26,4.18,4.18,0,0,1,.35,1.22,4.68,4.68,0,0,1,0,.83,4.82,4.82,0,0,1-.66,2.5,3.81,3.81,0,0,1-1.53,1.35,3.32,3.32,0,0,1-1.8.32,5.36,5.36,0,0,1-1.51-.4l-1.25-.52a1,1,0,0,0-1.32.73,4.75,4.75,0,0,0-.25,1.45c0,.38,0,.75,0,1.13s.08.84.15,1.26c.11.78.23,1.56.37,2.33.1.57.23,1.14.35,1.7.2.9.41,1.79.61,2.68v.09l-1.6.47c-.67.19-1.33.38-2,.55l-1.8.4a11.19,11.19,0,0,1-1.39.23c-.54,0-1.08,0-1.62,0A2.35,2.35,0,0,1,37.29,50a1.11,1.11,0,0,1-.64-.91,2.56,2.56,0,0,1,.25-1.23,12,12,0,0,0,.55-2,4.66,4.66,0,0,0-.78-3.53,3.18,3.18,0,0,0-2.19-1.35,4,4,0,0,0-.77-.07,3.31,3.31,0,0,0-2.24.93A4.24,4.24,0,0,0,30.26,44a4.75,4.75,0,0,0-.05,1.36A15.92,15.92,0,0,0,30.78,48a3.38,3.38,0,0,1,.11,1.18.82.82,0,0,1-.56.72,3,3,0,0,1-1.06.21c-.66,0-1.33,0-2,0A8.56,8.56,0,0,1,26,50c-.62-.1-1.24-.22-1.86-.35s-1-.23-1.51-.36Z"/></g></g></svg>