<svg xmlns="http://www.w3.org/2000/svg" viewBox="0 0 360.88 356.5"><defs><style>.cls-1{fill:#fff;}</style></defs><title>PH_Thermo_Logo</title><g id="Layer_2" data-name="Layer 2"><g id="Layer_1-2" data-name="Layer 1"><path class="cls-1" d="M222.91,60.7a25.19,25.19,0,0,0-23.65-25.13v0h-88v.23a56.48,56.48,0,1,0,0,49.46v.66h88v-.05A25.18,25.18,0,0,0,222.91,60.7Z"/><path class="cls-1" d="M138,299.3a25.18,25.18,0,0,0,23.64,25.13v.05h88v-.23a56.48,56.48,0,1,0,0-49.46v-.66h-88v.05A25.17,25.17,0,0,0,138,299.3Z"/><path class="cls-1" d="M60.7,133.59a25.17,25.17,0,0,1,25.12,23.64h.05v88h-.66a56.48,56.48,0,1,1-49.46,0h-.23v-88h0A25.18,25.18,0,0,1,60.7,133.59m0-4a29.19,29.19,0,0,0-29.07,26.72,4.06,4.06,0,0,0-.11.92v85.68a60.5,60.5,0,1,0,58.35.25V157.23a4.06,4.06,0,0,0-.11-.92A29.19,29.19,0,0,0,60.7,129.59Z"/><path class="cls-1" d="M300.4,4a56.48,56.48,0,0,1,24.73,107.26h.22v88h-.05a25.17,25.17,0,0,1-50.24,0H275v-88h.66A56.48,56.48,0,0,1,300.4,4m0-4A60.48,60.48,0,0,0,271,113.34v85.92a4.08,4.08,0,0,0,.1.93,29.17,29.17,0,0,0,58.14,0,4.08,4.08,0,0,0,.1-.93V113.58A60.48,60.48,0,0,0,300.4,0Z"/></g></g></svg>