<svg xmlns="http://www.w3.org/2000/svg" viewBox="0 0 119 119"><defs><style>.cls-1,.cls-2{fill:none;stroke:#ededed;stroke-linejoin:round;}.cls-2{stroke-width:3px;}.cls-3{fill:#ededed;}</style></defs><title>Nonogram_logo</title><g id="Layer_2" data-name="Layer 2"><g id="Layer_1-2" data-name="Layer 1"><line class="cls-1" x1="95.03" y1="0.75" x2="95.03" y2="118"/><line class="cls-1" x1="71.13" y1="0.75" x2="71.13" y2="118"/><line class="cls-2" x1="47.24" y1="0.75" x2="47.24" y2="118"/><line class="cls-1" x1="119" y1="71.87" x2="0.09" y2="71.87"/><line class="cls-2" x1="119" y1="47.93" x2="0.09" y2="47.93"/><line class="cls-1" x1="119" y1="95.81" x2="0.09" y2="95.81"/><path class="cls-3" d="M56.15,29V27.24h4.24V42h-2V29Z"/><path class="cls-3" d="M56.15,9V7.24h4.24V22h-2V9Z"/><path class="cls-3" d="M32.79,54.89V53.1H37V67.91H35v-13Z"/><path class="cls-3" d="M32.79,78.69V76.91H37v14.8H35v-13Z"/><path class="cls-3" d="M13.15,54.89V53.1H17.4V67.91h-2v-13Z"/><path class="cls-3" d="M36.17,108.25a6.81,6.81,0,0,0,2.14-4.39,3,3,0,0,0-.64-2,2.54,2.54,0,0,0-2.07-.77,2.66,2.66,0,0,0-2.22.94,4.26,4.26,0,0,0-.84,2.57H30.65a5.55,5.55,0,0,1,1.53-3.81,4.92,4.92,0,0,1,3.57-1.34,4.71,4.71,0,0,1,3.3,1.12,4.05,4.05,0,0,1,1.22,3.15,6.34,6.34,0,0,1-1.09,3.41,15.3,15.3,0,0,1-2.7,3.21,21,21,0,0,1-3.35,2.51h7.51v1.58H30.46V113A30.61,30.61,0,0,0,36.17,108.25Z"/><path class="cls-3" d="M83.78,35.81a6.86,6.86,0,0,0,2.14-4.4,3.07,3.07,0,0,0-.64-2,2.57,2.57,0,0,0-2.07-.77,2.69,2.69,0,0,0-2.23.94,4.39,4.39,0,0,0-.84,2.57H78.25a5.51,5.51,0,0,1,1.54-3.81A4.92,4.92,0,0,1,83.36,27a4.66,4.66,0,0,1,3.29,1.12,4.05,4.05,0,0,1,1.22,3.15,6.43,6.43,0,0,1-1.08,3.41,15.31,15.31,0,0,1-2.71,3.21,20.18,20.18,0,0,1-3.35,2.51h7.52V42H78.06V40.57A31.1,31.1,0,0,0,83.78,35.81Z"/><path class="cls-3" d="M104.2,29V27.24h4.24V42h-2V29Z"/><rect class="cls-1" x="0.5" y="0.5" width="118" height="118" rx="12.5" ry="12.5"/></g></g></svg>