<svg xmlns="http://www.w3.org/2000/svg" viewBox="0 0 350.67 54.03"><defs><style>.cls-1{fill:#afafaf;}.cls-2{fill:#f24b3e;}</style></defs><title>PH_logo_redGrey</title><g id="Layer_2" data-name="Layer 2"><g id="Layer_1-2" data-name="Layer 1"><path class="cls-1" d="M70.42,49.89a1,1,0,0,1-.18.61,1.27,1.27,0,0,1-.62.44,4.26,4.26,0,0,1-1.16.26,15,15,0,0,1-1.81.09,15.81,15.81,0,0,1-1.88-.09,4,4,0,0,1-1.14-.26,1.31,1.31,0,0,1-.6-.44,1,1,0,0,1-.17-.61V46.26a19.8,19.8,0,0,1-5.29,4.22A11.91,11.91,0,0,1,52,51.89a12.58,12.58,0,0,1-5.43-1A9.46,9.46,0,0,1,43,48a11.54,11.54,0,0,1-1.93-4.23,26,26,0,0,1-.58-6V18.53a1,1,0,0,1,.19-.62,1.48,1.48,0,0,1,.7-.44,6.3,6.3,0,0,1,1.37-.26,25.49,25.49,0,0,1,4.28,0,6.21,6.21,0,0,1,1.35.26,1.62,1.62,0,0,1,.72.44,1,1,0,0,1,.21.62V36.25A17,17,0,0,0,49.64,40a6.66,6.66,0,0,0,1,2.23,4.51,4.51,0,0,0,1.66,1.44,5,5,0,0,0,2.33.51A5.8,5.8,0,0,0,58,43a20.56,20.56,0,0,0,3.64-3.59V18.53a1,1,0,0,1,.19-.62,1.48,1.48,0,0,1,.7-.44,6.19,6.19,0,0,1,1.36-.26A20.73,20.73,0,0,1,66,17.12a21.08,21.08,0,0,1,2.15.09,5.88,5.88,0,0,1,1.33.26,1.59,1.59,0,0,1,.7.44,1,1,0,0,1,.22.62Z"/><path class="cls-1" d="M104.13,47.46A12.21,12.21,0,0,1,104,49.2a4.73,4.73,0,0,1-.28,1.14,1.12,1.12,0,0,1-.46.58,1.21,1.21,0,0,1-.63.16H82.15a1.74,1.74,0,0,1-1.45-.63,3.32,3.32,0,0,1-.51-2.08V46.76a10.15,10.15,0,0,1,0-1.15,4.18,4.18,0,0,1,.21-1,6.19,6.19,0,0,1,.42-1c.18-.32.41-.69.69-1.09L93.3,24.43H82.19c-.45,0-.8-.28-1.07-.84a6.63,6.63,0,0,1-.41-2.71,13.28,13.28,0,0,1,.09-1.7,4.47,4.47,0,0,1,.26-1.09,1.25,1.25,0,0,1,.46-.58,1.22,1.22,0,0,1,.67-.18h19.16a2.9,2.9,0,0,1,.84.11,1.16,1.16,0,0,1,.58.38,2,2,0,0,1,.36.78,5.32,5.32,0,0,1,.12,1.23v1.72a11.44,11.44,0,0,1-.07,1.25,8.32,8.32,0,0,1-.21,1,5.39,5.39,0,0,1-.41,1c-.17.33-.38.68-.61,1.05L90.28,44h12.37a1.39,1.39,0,0,1,.6.14,1.08,1.08,0,0,1,.47.53,3.65,3.65,0,0,1,.3,1.07A11.81,11.81,0,0,1,104.13,47.46Z"/><path class="cls-1" d="M135.62,47.46a12.37,12.37,0,0,1-.1,1.74,5.25,5.25,0,0,1-.28,1.14,1.12,1.12,0,0,1-.46.58,1.23,1.23,0,0,1-.63.16h-20.5a1.77,1.77,0,0,1-1.46-.63,3.32,3.32,0,0,1-.51-2.08V46.76a10,10,0,0,1,.06-1.15,4.18,4.18,0,0,1,.21-1,5.37,5.37,0,0,1,.42-1,10.74,10.74,0,0,1,.68-1.09L124.8,24.43H113.69a1.22,1.22,0,0,1-1.08-.84,6.84,6.84,0,0,1-.4-2.71,13.28,13.28,0,0,1,.09-1.7,4.05,4.05,0,0,1,.26-1.09,1.25,1.25,0,0,1,.46-.58,1.22,1.22,0,0,1,.67-.18h19.16a2.9,2.9,0,0,1,.84.11,1.21,1.21,0,0,1,.58.38,2,2,0,0,1,.35.78,5.27,5.27,0,0,1,.13,1.23v1.72a11.44,11.44,0,0,1-.07,1.25,6.84,6.84,0,0,1-.22,1,4.71,4.71,0,0,1-.4,1c-.18.33-.38.68-.62,1.05L121.77,44h12.38a1.39,1.39,0,0,1,.6.14,1.13,1.13,0,0,1,.47.53,3.65,3.65,0,0,1,.3,1.07A12,12,0,0,1,135.62,47.46Z"/><path class="cls-1" d="M154,49.89a.94.94,0,0,1-.21.61,1.53,1.53,0,0,1-.72.44,5.66,5.66,0,0,1-1.35.26,25.61,25.61,0,0,1-4.29,0,5.66,5.66,0,0,1-1.35-.26,1.53,1.53,0,0,1-.72-.44.9.9,0,0,1-.22-.61V3.66A1,1,0,0,1,145.4,3a1.63,1.63,0,0,1,.72-.47,6,6,0,0,1,1.35-.3,21,21,0,0,1,4.29,0,6,6,0,0,1,1.35.3,1.63,1.63,0,0,1,.72.47,1,1,0,0,1,.21.64Z"/><path class="cls-1" d="M194.72,33.29a3.4,3.4,0,0,1-.72,2.39,2.58,2.58,0,0,1-2,.78H172.92a13.24,13.24,0,0,0,.47,3.63,6.89,6.89,0,0,0,1.52,2.78,6.6,6.6,0,0,0,2.67,1.74,11.38,11.38,0,0,0,3.92.6,22.45,22.45,0,0,0,4.08-.33,29,29,0,0,0,3-.74c.85-.27,1.56-.52,2.12-.74a4,4,0,0,1,1.37-.33,1,1,0,0,1,.53.12.89.89,0,0,1,.35.44,2.87,2.87,0,0,1,.2.89c0,.39.05.88.05,1.46s0,1,0,1.32a6.79,6.79,0,0,1-.1.93,2.36,2.36,0,0,1-.21.65,2.54,2.54,0,0,1-.37.51,4.07,4.07,0,0,1-1.25.67,20.18,20.18,0,0,1-2.6.83,36,36,0,0,1-3.62.7,30,30,0,0,1-4.36.3,23.18,23.18,0,0,1-7.33-1,13.15,13.15,0,0,1-5.26-3.2A13.38,13.38,0,0,1,165,42.22a25.43,25.43,0,0,1-1-7.66A24.21,24.21,0,0,1,165,27a15.92,15.92,0,0,1,3.16-5.7,13.67,13.67,0,0,1,5.05-3.57,17.36,17.36,0,0,1,6.7-1.23,17.63,17.63,0,0,1,6.73,1.16,12.31,12.31,0,0,1,4.59,3.22,13,13,0,0,1,2.63,4.87,20.91,20.91,0,0,1,.85,6.12Zm-8.58-2.53a9.07,9.07,0,0,0-1.5-5.85,5.77,5.77,0,0,0-4.94-2.13,6.42,6.42,0,0,0-2.93.63,6.19,6.19,0,0,0-2.08,1.71,7.7,7.7,0,0,0-1.26,2.53,12.88,12.88,0,0,0-.51,3.11Z"/><path class="cls-1" d="M307.33,49.89a1,1,0,0,1-.18.61,1.29,1.29,0,0,1-.61.44,4.35,4.35,0,0,1-1.16.26,15.29,15.29,0,0,1-1.82.09,15.81,15.81,0,0,1-1.88-.09,4,4,0,0,1-1.14-.26,1.31,1.31,0,0,1-.6-.44,1.12,1.12,0,0,1-.17-.61V46.26a19.8,19.8,0,0,1-5.29,4.22,11.88,11.88,0,0,1-5.58,1.41,12.58,12.58,0,0,1-5.43-1A9.46,9.46,0,0,1,279.92,48,11.7,11.7,0,0,1,278,43.72a26,26,0,0,1-.58-6V18.53a1,1,0,0,1,.19-.62,1.53,1.53,0,0,1,.7-.44,6.29,6.29,0,0,1,1.38-.26,20.85,20.85,0,0,1,2.12-.09,21.08,21.08,0,0,1,2.15.09,6.21,6.21,0,0,1,1.35.26,1.62,1.62,0,0,1,.72.44,1,1,0,0,1,.21.62V36.25a17,17,0,0,0,.32,3.76,6.48,6.48,0,0,0,1,2.23,4.4,4.4,0,0,0,1.65,1.44,5.08,5.08,0,0,0,2.34.51A5.8,5.8,0,0,0,294.9,43a20.23,20.23,0,0,0,3.64-3.59V18.53a1,1,0,0,1,.19-.62,1.48,1.48,0,0,1,.7-.44,6.19,6.19,0,0,1,1.36-.26,20.73,20.73,0,0,1,2.14-.09,21.08,21.08,0,0,1,2.15.09,5.88,5.88,0,0,1,1.33.26,1.7,1.7,0,0,1,.71.44,1,1,0,0,1,.21.62Z"/><path class="cls-1" d="M350.67,33.78a28.56,28.56,0,0,1-.91,7.53A17.2,17.2,0,0,1,347.12,47a11.69,11.69,0,0,1-4.24,3.62,12.43,12.43,0,0,1-5.71,1.27,13.78,13.78,0,0,1-2.95-.3,9.84,9.84,0,0,1-2.62-1,14.15,14.15,0,0,1-2.46-1.68,22.88,22.88,0,0,1-2.48-2.46v3.41a1.16,1.16,0,0,1-.19.65,1.47,1.47,0,0,1-.64.44,4.76,4.76,0,0,1-1.17.24c-.5.05-1.09.07-1.8.07s-1.33,0-1.81-.07a4.77,4.77,0,0,1-1.16-.24,1.3,1.3,0,0,1-.61-.44,1.15,1.15,0,0,1-.18-.65V3.66a1,1,0,0,1,.21-.64,1.63,1.63,0,0,1,.72-.47,5.92,5.92,0,0,1,1.36-.3,17.65,17.65,0,0,1,2.14-.11,18,18,0,0,1,2.15.11,6,6,0,0,1,1.35.3,1.63,1.63,0,0,1,.72.47,1,1,0,0,1,.21.64V21a18,18,0,0,1,2.39-2,14.76,14.76,0,0,1,2.39-1.39,11,11,0,0,1,2.46-.79,14.4,14.4,0,0,1,2.67-.25,11.8,11.8,0,0,1,5.91,1.39,11.47,11.47,0,0,1,4,3.75,16.68,16.68,0,0,1,2.23,5.5A30.13,30.13,0,0,1,350.67,33.78Zm-9.17.64a24.28,24.28,0,0,0-.3-3.87,11.11,11.11,0,0,0-1-3.3,6.35,6.35,0,0,0-1.92-2.31,4.91,4.91,0,0,0-3-.86,5.92,5.92,0,0,0-1.72.25,6.28,6.28,0,0,0-1.74.84A12.88,12.88,0,0,0,330,26.72a22.42,22.42,0,0,0-2,2.35V39.48a18.74,18.74,0,0,0,3.57,3.64,6,6,0,0,0,3.57,1.25,4.81,4.81,0,0,0,2.91-.88,7.16,7.16,0,0,0,2-2.29,10.36,10.36,0,0,0,1.14-3.2A18.12,18.12,0,0,0,341.5,34.42Z"/><path class="cls-2" d="M31.15,19.41A17.91,17.91,0,0,1,30,26.19a13,13,0,0,1-3.48,5,15.37,15.37,0,0,1-5.6,3.07A26.11,26.11,0,0,1,13,35.3H9.25V49.82a1,1,0,0,1-.23.63,1.67,1.67,0,0,1-.76.46,8,8,0,0,1-1.4.28,19.89,19.89,0,0,1-2.25.1,19.93,19.93,0,0,1-2.24-.1A8.05,8.05,0,0,1,1,50.91a1.5,1.5,0,0,1-.74-.46A1,1,0,0,1,0,49.82V8.89A3.28,3.28,0,0,1,.86,6.42a3.16,3.16,0,0,1,2.27-.83H13.85c1.08,0,2.11,0,3.08.12a34.69,34.69,0,0,1,3.5.53,15.87,15.87,0,0,1,4.13,1.49,12.55,12.55,0,0,1,3.57,2.76,11.74,11.74,0,0,1,2.25,3.91A15.32,15.32,0,0,1,31.15,19.41Zm-9.67.66a8.17,8.17,0,0,0-.84-3.93,5.84,5.84,0,0,0-2.08-2.29A6.92,6.92,0,0,0,16,12.92a19.65,19.65,0,0,0-2.8-.19H9.25V28.16h4.14a10,10,0,0,0,3.71-.6,6.35,6.35,0,0,0,2.45-1.67A7.28,7.28,0,0,0,21,23.33,10.32,10.32,0,0,0,21.48,20.07Z"/><path class="cls-2" d="M215.05,51.33c.13-.59.26-1.16.37-1.72.3-1.46.61-2.91.89-4.37.21-1.12.42-2.24.59-3.37.12-.82.2-1.66.25-2.49.06-1.13.12-2.25.1-3.38a11.09,11.09,0,0,0-.34-3,1.36,1.36,0,0,0-1.73-1.12c-1.11.31-2.2.68-3.3,1a13.58,13.58,0,0,1-1.55.27,4.63,4.63,0,0,1-2.46-.34,5.29,5.29,0,0,1-1.67-1.07,6.36,6.36,0,0,1-2.08-4.18,14.91,14.91,0,0,1,0-1.89,6.82,6.82,0,0,1,1.19-3.55A5.76,5.76,0,0,1,212,20c.89.33,1.76.71,2.64,1.07a1.75,1.75,0,0,0,1.66,0,1.84,1.84,0,0,0,.78-1.15,19.56,19.56,0,0,0,.35-2,5.45,5.45,0,0,0,.05-1.21c-.06-.86-.13-1.72-.24-2.58-.16-1.19-.35-2.39-.56-3.58s-.42-2.14-.65-3.21c-.31-1.48-.65-2.95-1-4.46l1.15-.36c1-.28,1.93-.57,2.89-.82,1.27-.33,2.54-.64,3.82-.94q1.1-.26,2.19-.45c.57-.09,1.14-.12,1.72-.18.17,0,.34,0,.51,0a7.1,7.1,0,0,1,2.81.46,1.8,1.8,0,0,1,1.23,2A4.72,4.72,0,0,1,231,3.93a20,20,0,0,0-.94,3.43,8.12,8.12,0,0,0,0,2.31,7.29,7.29,0,0,0,1,2.81,5.28,5.28,0,0,0,2.69,2.39,7.11,7.11,0,0,0,1.83.39,5.41,5.41,0,0,0,2.39-.33A5.31,5.31,0,0,0,240.4,13a7.08,7.08,0,0,0,1.26-2.74,8.16,8.16,0,0,0,.09-2.42,19.79,19.79,0,0,0-.7-3.25,9.33,9.33,0,0,1-.41-2.3A1.46,1.46,0,0,1,241.69.69,6.71,6.71,0,0,1,243.16.4a21,21,0,0,1,2.38-.11c.89,0,1.79.12,2.68.22a33.45,33.45,0,0,1,4.74,1l4.82,1.31.06,0c-.09.43-.19.87-.28,1.3-.36,1.77-.73,3.54-1.07,5.32-.21,1.06-.39,2.13-.55,3.21-.1.73-.16,1.48-.2,2.22-.05.93-.12,1.86-.09,2.78s.12,2,.25,3a1.81,1.81,0,0,0,.71,1.37,1.25,1.25,0,0,0,1,.19c1.2-.34,2.39-.71,3.58-1.06a6,6,0,0,1,2.18-.26,5.26,5.26,0,0,1,3.32,1.46,6.69,6.69,0,0,1,1.51,2,6.27,6.27,0,0,1,.55,2,7.49,7.49,0,0,1,.1,1.34,7.83,7.83,0,0,1-1.08,4,6.14,6.14,0,0,1-2.47,2.18,5.38,5.38,0,0,1-2.89.51A8.16,8.16,0,0,1,260,33.8L258,33a1.59,1.59,0,0,0-2.13,1.17,7.7,7.7,0,0,0-.39,2.34c0,.6,0,1.21,0,1.82s.14,1.36.24,2c.19,1.25.39,2.51.61,3.76.16.92.37,1.84.57,2.75.32,1.44.65,2.88,1,4.32a.74.74,0,0,1,0,.15c-.87.25-1.72.51-2.58.75-1.07.3-2.15.61-3.23.88s-1.93.45-2.9.65a18.87,18.87,0,0,1-2.25.38c-.86.07-1.73,0-2.6,0a4,4,0,0,1-1.71-.46,1.78,1.78,0,0,1-1-1.47,4.2,4.2,0,0,1,.39-2,18.41,18.41,0,0,0,.9-3.27,7.49,7.49,0,0,0-1.27-5.69A5.1,5.1,0,0,0,238,38.94a6,6,0,0,0-1.26-.11,5.29,5.29,0,0,0-3.6,1.5,6.89,6.89,0,0,0-2,3.61,7.71,7.71,0,0,0-.08,2.2,25.64,25.64,0,0,0,.92,4.19,5.82,5.82,0,0,1,.18,1.9,1.32,1.32,0,0,1-.91,1.15,4.58,4.58,0,0,1-1.71.35c-1.07,0-2.14.06-3.21,0a13.58,13.58,0,0,1-2-.22c-1-.16-2-.36-3-.57-.82-.17-1.63-.37-2.44-.58Z"/></g></g></svg>