<svg class="ldi-acogix" width="200px"  height="200px"  xmlns="http://www.w3.org/2000/svg" xmlns:xlink="http://www.w3.org/1999/xlink" viewBox="0 0 100 100" preserveAspectRatio="xMidYMid" style="background: none;"><!--?xml version="1.0" encoding="utf-8"?--><!--Generator: Adobe Illustrator 21.0.0, SVG Export Plug-In . SVG Version: 6.00 Build 0)--><svg version="1.1" id="圖層_1" xmlns="http://www.w3.org/2000/svg" xmlns:xlink="http://www.w3.org/1999/xlink" x="0px" y="0px" viewBox="0 0 100 100" style="transform-origin: 50px 50px 0px;" xml:space="preserve"><g style="transform-origin: 50px 50px 0px;"><g style="transform-origin: 50px 50px 0px; transform: scale(0.6);"><g style="transform-origin: 50px 50px 0px;"><g><g class="ld ld-breath" style="transform-origin: 50px 50px 0px; animation-duration: 1s; animation-delay: -1s; animation-direction: normal;"><path style="fill: rgb(77, 185, 59);" d="M58.904,70c0,4.399-3.206,8.063-7.404,8.778V88.5h27.328c5.333,0,9.672-4.339,9.672-9.672V51.5 H75.904V50c0-3.256-2.648-5.905-5.904-5.905S64.096,46.744,64.096,50v1.5H51.5v9.722C55.698,61.937,58.904,65.601,58.904,70z" fill="#4db93b"></path></g><g class="ld ld-breath" style="transform-origin: 50px 50px 0px; animation-duration: 1s; animation-delay: -0.923077s; animation-direction: normal;"><path style="fill: rgb(220, 29, 43);" d="M70,41.095c4.398,0,8.063,3.206,8.778,7.405H88.5V21.172c0-5.333-4.339-9.672-9.672-9.672H51.5 v12.595H50c-3.256,0-5.904,2.649-5.904,5.905s2.648,5.905,5.904,5.905h1.5V48.5h9.722C61.938,44.301,65.602,41.095,70,41.095z" fill="#dc1d2b"></path></g><g class="ld ld-breath" style="transform-origin: 50px 50px 0px; animation-duration: 1s; animation-delay: -0.846154s; animation-direction: normal;"><path style="fill: rgb(128, 218, 175);" d="M41.096,30c0-4.399,3.206-8.063,7.404-8.778V11.5H21.172c-5.333,0-9.672,4.339-9.672,9.672V48.5 h12.596V50c0,3.256,2.648,5.905,5.904,5.905s5.904-2.649,5.904-5.905v-1.5H48.5v-9.722C44.302,38.063,41.096,34.399,41.096,30z" fill="#80daaf"></path></g><g class="ld ld-breath" style="transform-origin: 50px 50px 0px; animation-duration: 1s; animation-delay: -0.769231s; animation-direction: normal;"><path style="fill: rgb(255, 186, 83);" d="M30,58.905c-4.398,0-8.063-3.206-8.778-7.405H11.5v27.328c0,5.333,4.339,9.672,9.672,9.672H48.5 V75.905H50c3.256,0,5.904-2.649,5.904-5.905S53.256,64.095,50,64.095h-1.5V51.5h-9.722C38.062,55.699,34.398,58.905,30,58.905z" fill="#ffba53"></path></g><metadata xmlns:d="https://loading.io/stock/" class="ld ld-breath" style="transform-origin: 50px 50px 0px; animation-duration: 1s; animation-delay: -0.692308s; animation-direction: normal;">
<d:name class="ld ld-breath" style="transform-origin: 50px 50px 0px; animation-duration: 1s; animation-delay: -0.615385s; animation-direction: normal;">puzzle</d:name>
<d:tags class="ld ld-breath" style="transform-origin: 50px 50px 0px; animation-duration: 1s; animation-delay: -0.538462s; animation-direction: normal;">puzzle,maze,merge,combine,solve,step,flow,infographics</d:tags>
<d:license class="ld ld-breath" style="transform-origin: 50px 50px 0px; animation-duration: 1s; animation-delay: -0.461538s; animation-direction: normal;">cc-by</d:license>
<d:slug class="ld ld-breath" style="transform-origin: 50px 50px 0px; animation-duration: 1s; animation-delay: -0.384615s; animation-direction: normal;">acogix</d:slug>
</metadata></g></g></g></g><style type="text/css" class="ld ld-breath" style="transform-origin: 50px 50px 0px; animation-duration: 1s; animation-delay: -0.307692s; animation-direction: normal;">path,ellipse,circle,rect,polygon,polyline,line { stroke-width: 0; }@keyframes ld-breath {
  0% {
    -webkit-transform: scale(0.86);
    transform: scale(0.86);
  }
  50% {
    -webkit-transform: scale(1.06);
    transform: scale(1.06);
  }
  100% {
    -webkit-transform: scale(0.86);
    transform: scale(0.86);
  }
}
@-webkit-keyframes ld-breath {
  0% {
    -webkit-transform: scale(0.86);
    transform: scale(0.86);
  }
  50% {
    -webkit-transform: scale(1.06);
    transform: scale(1.06);
  }
  100% {
    -webkit-transform: scale(0.86);
    transform: scale(0.86);
  }
}
.ld.ld-breath {
  -webkit-animation: ld-breath 1s infinite;
  animation: ld-breath 1s infinite;
}
</style></svg></svg>