<svg xmlns="http://www.w3.org/2000/svg" viewBox="0 0 480.07 86.01"><defs><style>.cls-1{fill:#afafaf;}.cls-2{fill:#f24b3e;}</style></defs><title>PH_kerning2</title><g id="Layer_2" data-name="Layer 2"><g id="Layer_1-2" data-name="Layer 1"><path class="cls-1" d="M109.13,82.82a1.69,1.69,0,0,1-.28,1,2,2,0,0,1-1,.7,7.18,7.18,0,0,1-1.84.42,25.42,25.42,0,0,1-2.89.14,26.35,26.35,0,0,1-3-.14,6.81,6.81,0,0,1-1.82-.42,2,2,0,0,1-1-.7,1.69,1.69,0,0,1-.28-1V77.06a31.76,31.76,0,0,1-8.42,6.71A18.87,18.87,0,0,1,79.81,86a19.88,19.88,0,0,1-8.65-1.68,14.89,14.89,0,0,1-5.65-4.59A18.18,18.18,0,0,1,62.43,73a41.26,41.26,0,0,1-.93-9.54V32.9a1.66,1.66,0,0,1,.31-1,2.32,2.32,0,0,1,1.12-.7,9.67,9.67,0,0,1,2.18-.42c.92-.09,2-.14,3.39-.14s2.52.05,3.41.14a9.58,9.58,0,0,1,2.16.42,2.55,2.55,0,0,1,1.15.7,1.55,1.55,0,0,1,.33,1V61.11a26.67,26.67,0,0,0,.51,6,10.34,10.34,0,0,0,1.53,3.55,6.94,6.94,0,0,0,2.64,2.29,8,8,0,0,0,3.72.82,9.25,9.25,0,0,0,5.4-2,32.32,32.32,0,0,0,5.79-5.71V32.9a1.59,1.59,0,0,1,.31-1,2.27,2.27,0,0,1,1.12-.7,9.59,9.59,0,0,1,2.15-.42c.9-.09,2-.14,3.42-.14s2.52.05,3.41.14a9.16,9.16,0,0,1,2.13.42,2.54,2.54,0,0,1,1.12.7,1.55,1.55,0,0,1,.33,1Z"/><path class="cls-1" d="M151.35,80.25a19.72,19.72,0,0,1-.17,2.77,7.64,7.64,0,0,1-.45,1.82,1.74,1.74,0,0,1-.72.92,2,2,0,0,1-1,.25H116.37a2.8,2.8,0,0,1-2.32-1,5.34,5.34,0,0,1-.81-3.31V79.13a16.82,16.82,0,0,1,.08-1.82,7.58,7.58,0,0,1,.34-1.57,9.59,9.59,0,0,1,.67-1.54,16.3,16.3,0,0,1,1.09-1.73l18.69-28.88H116.43c-.71,0-1.28-.45-1.71-1.34a10.63,10.63,0,0,1-.64-4.31,20.71,20.71,0,0,1,.14-2.72,6.66,6.66,0,0,1,.41-1.73,1.79,1.79,0,0,1,1.8-1.21h30.5a4.75,4.75,0,0,1,1.34.17,1.9,1.9,0,0,1,.93.62,3.19,3.19,0,0,1,.55,1.23,7.72,7.72,0,0,1,.2,2V39a16.65,16.65,0,0,1-.11,2,11.74,11.74,0,0,1-.34,1.65,8.23,8.23,0,0,1-.64,1.57c-.28.52-.61,1.08-1,1.67L129.3,74.71H149a2.1,2.1,0,0,1,.95.22,1.81,1.81,0,0,1,.76.84,6.05,6.05,0,0,1,.47,1.71A19,19,0,0,1,151.35,80.25Z"/><path class="cls-1" d="M194.32,80.25a19.89,19.89,0,0,1-.16,2.77,8.15,8.15,0,0,1-.45,1.82,1.8,1.8,0,0,1-.73.92,2,2,0,0,1-1,.25H159.34A2.81,2.81,0,0,1,157,85a5.34,5.34,0,0,1-.81-3.31V79.13c0-.67,0-1.28.08-1.82a7.58,7.58,0,0,1,.34-1.57,10.58,10.58,0,0,1,.67-1.54,18.1,18.1,0,0,1,1.09-1.73l18.7-28.88H159.4c-.71,0-1.28-.45-1.71-1.34a10.63,10.63,0,0,1-.64-4.31,22.62,22.62,0,0,1,.14-2.72,6.24,6.24,0,0,1,.42-1.73,1.79,1.79,0,0,1,1.79-1.21h30.5a4.82,4.82,0,0,1,1.35.17,1.83,1.83,0,0,1,.92.62,3.2,3.2,0,0,1,.56,1.23,8.21,8.21,0,0,1,.2,2V39a14.67,14.67,0,0,1-.12,2,10.47,10.47,0,0,1-.33,1.65,8.29,8.29,0,0,1-.65,1.57c-.28.52-.6,1.08-1,1.67L172.27,74.71H192a2.11,2.11,0,0,1,1,.22,1.79,1.79,0,0,1,.75.84,6,6,0,0,1,.48,1.71A19.21,19.21,0,0,1,194.32,80.25Z"/><path class="cls-1" d="M212.29,83.77a1.53,1.53,0,0,1-.33,1,2.46,2.46,0,0,1-1.15.7,9.59,9.59,0,0,1-2.15.42,32.34,32.34,0,0,1-3.42.14,32,32,0,0,1-3.41-.14,9.58,9.58,0,0,1-2.16-.42,2.37,2.37,0,0,1-1.14-.7,1.48,1.48,0,0,1-.34-1V10.18a1.62,1.62,0,0,1,.34-1,2.49,2.49,0,0,1,1.14-.76,9.81,9.81,0,0,1,2.16-.47,28.64,28.64,0,0,1,3.41-.17,28.94,28.94,0,0,1,3.42.17,9.84,9.84,0,0,1,2.15.47,2.59,2.59,0,0,1,1.15.76,1.67,1.67,0,0,1,.33,1Z"/><path class="cls-1" d="M265.73,56.41a5.4,5.4,0,0,1-1.15,3.8,4.11,4.11,0,0,1-3.16,1.23H231a20.57,20.57,0,0,0,.76,5.8,11,11,0,0,0,2.4,4.42,10.55,10.55,0,0,0,4.26,2.77,18.28,18.28,0,0,0,6.24.95,35.54,35.54,0,0,0,6.49-.53A44.19,44.19,0,0,0,256,73.67q2-.65,3.39-1.17a6.11,6.11,0,0,1,2.18-.53,1.68,1.68,0,0,1,.84.19,1.46,1.46,0,0,1,.56.7,4.79,4.79,0,0,1,.31,1.43c.05.61.08,1.39.08,2.32s0,1.52-.06,2.1a12.65,12.65,0,0,1-.16,1.48,3.73,3.73,0,0,1-.34,1,4,4,0,0,1-.59.81,6.83,6.83,0,0,1-2,1.06,31.69,31.69,0,0,1-4.15,1.32,57.35,57.35,0,0,1-5.76,1.12,49,49,0,0,1-6.94.47,36.73,36.73,0,0,1-11.67-1.68,20.75,20.75,0,0,1-8.37-5.09,21.13,21.13,0,0,1-5-8.62,40.46,40.46,0,0,1-1.65-12.2,38.63,38.63,0,0,1,1.74-12,25,25,0,0,1,5-9.07,21.76,21.76,0,0,1,8-5.68,27.52,27.52,0,0,1,10.66-2,28,28,0,0,1,10.72,1.85,19.25,19.25,0,0,1,7.3,5.12,20.7,20.7,0,0,1,4.2,7.75,34,34,0,0,1,1.34,9.74Zm-13.66-4c.12-4-.68-7.06-2.37-9.32s-4.32-3.39-7.87-3.39a10.21,10.21,0,0,0-4.67,1,9.51,9.51,0,0,0-3.3,2.71,12.5,12.5,0,0,0-2,4,20.18,20.18,0,0,0-.81,5Z"/><path class="cls-1" d="M424.29,82.82a1.76,1.76,0,0,1-.28,1,2,2,0,0,1-1,.7,7.27,7.27,0,0,1-1.85.42,25.1,25.1,0,0,1-2.88.14,26.35,26.35,0,0,1-3-.14,6.71,6.71,0,0,1-1.82-.42,2,2,0,0,1-1-.7,1.76,1.76,0,0,1-.27-1V77.06a31.79,31.79,0,0,1-8.43,6.71A18.81,18.81,0,0,1,395,86a19.94,19.94,0,0,1-8.65-1.68,15,15,0,0,1-5.65-4.59A18.34,18.34,0,0,1,377.58,73a41.88,41.88,0,0,1-.92-9.54V32.9a1.59,1.59,0,0,1,.31-1,2.27,2.27,0,0,1,1.12-.7,9.55,9.55,0,0,1,2.18-.42c.91-.09,2-.14,3.39-.14s2.51.05,3.41.14a9.48,9.48,0,0,1,2.15.42,2.49,2.49,0,0,1,1.15.7,1.5,1.5,0,0,1,.34,1V61.11a27.39,27.39,0,0,0,.5,6,10.55,10.55,0,0,0,1.54,3.55,7,7,0,0,0,2.63,2.29,8,8,0,0,0,3.72.82,9.25,9.25,0,0,0,5.4-2,32.67,32.67,0,0,0,5.8-5.71V32.9a1.65,1.65,0,0,1,.3-1,2.32,2.32,0,0,1,1.12-.7,9.58,9.58,0,0,1,2.16-.42c.89-.09,2-.14,3.41-.14s2.52.05,3.42.14a9.06,9.06,0,0,1,2.12.42,2.43,2.43,0,0,1,1.12.7,1.5,1.5,0,0,1,.34,1Z"/><path class="cls-1" d="M480.07,57.19a45.47,45.47,0,0,1-1.45,12,27.58,27.58,0,0,1-4.2,9.06A18.78,18.78,0,0,1,467.67,84a20,20,0,0,1-9.09,2,22.48,22.48,0,0,1-4.7-.47A16,16,0,0,1,449.71,84a22.47,22.47,0,0,1-3.92-2.69,35.38,35.38,0,0,1-3.94-3.92v5.43a1.76,1.76,0,0,1-.31,1,2.29,2.29,0,0,1-1,.7,7.06,7.06,0,0,1-1.88.39c-.78.07-1.73.11-2.85.11s-2.12,0-2.88-.11a7,7,0,0,1-1.85-.39,2.07,2.07,0,0,1-1-.7,1.82,1.82,0,0,1-.28-1V9.23a1.6,1.6,0,0,1,.34-1,2.48,2.48,0,0,1,1.15-.76A9.7,9.7,0,0,1,433.45,7a34.39,34.39,0,0,1,6.83,0,9.84,9.84,0,0,1,2.15.47,2.53,2.53,0,0,1,1.15.76,1.66,1.66,0,0,1,.34,1V36.82a29,29,0,0,1,3.8-3.25,24.15,24.15,0,0,1,3.81-2.21,17.23,17.23,0,0,1,3.92-1.26,22.31,22.31,0,0,1,4.25-.39,18.68,18.68,0,0,1,9.4,2.21,18.25,18.25,0,0,1,6.3,6A26.72,26.72,0,0,1,479,46.64,48.06,48.06,0,0,1,480.07,57.19Zm-14.61,1A39.74,39.74,0,0,0,465,52a17.74,17.74,0,0,0-1.65-5.26,10.34,10.34,0,0,0-3-3.67,7.84,7.84,0,0,0-4.73-1.37,9.83,9.83,0,0,0-2.75.39A10.51,10.51,0,0,0,450,43.48a18.84,18.84,0,0,0-2.93,2.46,35.44,35.44,0,0,0-3.19,3.75V66.26a29.52,29.52,0,0,0,5.68,5.79,9.51,9.51,0,0,0,5.68,2,7.65,7.65,0,0,0,4.64-1.4A11.2,11.2,0,0,0,463.08,69a16.87,16.87,0,0,0,1.82-5.09A29.16,29.16,0,0,0,465.46,58.2Z"/><path class="cls-2" d="M58.62,26a33.8,33.8,0,0,1-2.25,12.77,24.52,24.52,0,0,1-6.55,9.36,28.77,28.77,0,0,1-10.55,5.79,48.63,48.63,0,0,1-14.72,2H17.4V83.23a1.84,1.84,0,0,1-.43,1.2,3.14,3.14,0,0,1-1.42.86,13.9,13.9,0,0,1-2.65.52,35,35,0,0,1-4.23.2,35.09,35.09,0,0,1-4.2-.2,13.79,13.79,0,0,1-2.68-.52A2.82,2.82,0,0,1,.4,84.43a1.93,1.93,0,0,1-.4-1.2v-77A6.2,6.2,0,0,1,1.62,1.55,5.93,5.93,0,0,1,5.89,0H26.07q3,0,5.79.23a64.4,64.4,0,0,1,6.58,1A29.21,29.21,0,0,1,46.22,4a23.07,23.07,0,0,1,6.71,5.19,21.74,21.74,0,0,1,4.24,7.34A28.76,28.76,0,0,1,58.62,26ZM40.43,27.26a15.35,15.35,0,0,0-1.59-7.41,10.9,10.9,0,0,0-3.91-4.3,12.77,12.77,0,0,0-4.86-1.75,36.09,36.09,0,0,0-5.26-.37H17.4V42.48h7.81a18.89,18.89,0,0,0,7-1.13,11.92,11.92,0,0,0,4.6-3.14,13.65,13.65,0,0,0,2.71-4.83A19.34,19.34,0,0,0,40.43,27.26Z"/><path class="cls-2" d="M289.8,81.71c.2-.94.4-1.83.58-2.73.46-2.32.93-4.64,1.36-7,.33-1.78.65-3.57.91-5.36.19-1.32.32-2.64.39-4,.1-1.79.18-3.59.14-5.38a18,18,0,0,0-.51-4.74c-.44-1.5-1.41-2.13-2.67-1.78-1.7.48-3.38,1.07-5.08,1.55-.78.22-1.59.3-2.38.44a7.07,7.07,0,0,1-3.79-.54,8.21,8.21,0,0,1-2.58-1.72A10.4,10.4,0,0,1,273,43.87a23.16,23.16,0,0,1-.07-3,11.17,11.17,0,0,1,1.83-5.65,8.86,8.86,0,0,1,5.56-3.8,8.71,8.71,0,0,1,4.84.4c1.37.52,2.72,1.13,4.07,1.7a2.55,2.55,0,0,0,2.55-.06A2.81,2.81,0,0,0,293,31.63a31.75,31.75,0,0,0,.55-3.24,10.18,10.18,0,0,0,.08-1.91c-.09-1.38-.2-2.75-.38-4.11-.25-1.9-.53-3.81-.85-5.7-.29-1.71-.65-3.41-1-5.11-.49-2.35-1-4.69-1.53-7.11.59-.19,1.18-.39,1.78-.57,1.48-.44,2.95-.9,4.44-1.3,1.95-.53,3.92-1,5.88-1.5,1.12-.27,2.24-.51,3.37-.71.87-.15,1.76-.19,2.64-.28a7.25,7.25,0,0,1,.8-.09,10.49,10.49,0,0,1,4.32.73c1.38.63,1.93,1.38,1.89,3.22a8,8,0,0,1-.58,2.31,30.58,30.58,0,0,0-1.44,5.45,13.72,13.72,0,0,0,0,3.68,12.1,12.1,0,0,0,1.49,4.48,8.33,8.33,0,0,0,4.15,3.8,10.11,10.11,0,0,0,2.81.62,8.15,8.15,0,0,0,3.69-.52,8.31,8.31,0,0,0,3.81-3.06,11.34,11.34,0,0,0,1.93-4.35,13.14,13.14,0,0,0,.15-3.86,32.93,32.93,0,0,0-1.07-5.17,15.52,15.52,0,0,1-.65-3.67,2.35,2.35,0,0,1,1.63-2.57,10.32,10.32,0,0,1,2.25-.45,30.06,30.06,0,0,1,3.67-.17c1.37,0,2.75.18,4.13.34a49.87,49.87,0,0,1,7.3,1.53c2.47.68,4.94,1.39,7.41,2.08l.1.07c-.14.68-.29,1.38-.43,2.08-.55,2.81-1.13,5.63-1.66,8.46-.31,1.69-.59,3.4-.83,5.11-.16,1.17-.25,2.35-.32,3.53-.08,1.48-.18,3-.14,4.43s.2,3.23.38,4.82a2.94,2.94,0,0,0,1.11,2.18,1.84,1.84,0,0,0,1.56.31c1.85-.55,3.68-1.14,5.52-1.69a9.12,9.12,0,0,1,3.35-.42,8,8,0,0,1,5.11,2.33A10.14,10.14,0,0,1,372.51,42a15.25,15.25,0,0,1,.15,2.13A12.75,12.75,0,0,1,371,50.56,9.57,9.57,0,0,1,367.19,54a8,8,0,0,1-4.45.81,12.28,12.28,0,0,1-3.77-1c-1-.45-2.07-.89-3.1-1.32-1.37-.57-2.79.21-3.29,1.87a13,13,0,0,0-.6,3.72c0,1-.05,1.93,0,2.89s.21,2.17.37,3.25c.29,2,.59,4,.93,6,.25,1.47.57,2.93.88,4.38.48,2.29,1,4.58,1.49,6.87a1.91,1.91,0,0,1,0,.24l-4,1.2c-1.65.48-3.3,1-5,1.4-1.48.39-3,.72-4.46,1a26,26,0,0,1-3.47.61c-1.33.11-2.67,0-4,0a6,6,0,0,1-2.63-.73,2.8,2.8,0,0,1-1.58-2.33,6.8,6.8,0,0,1,.61-3.18,31.71,31.71,0,0,0,1.38-5.21,12.21,12.21,0,0,0-2-9.06A7.86,7.86,0,0,0,325.19,62a9,9,0,0,0-1.93-.18,8,8,0,0,0-5.55,2.4,11,11,0,0,0-3,5.74,12.86,12.86,0,0,0-.13,3.51A42.39,42.39,0,0,0,316,80.12a9.44,9.44,0,0,1,.28,3A2.12,2.12,0,0,1,314.86,85a7.27,7.27,0,0,1-2.63.54c-1.64,0-3.29.11-4.94.07a20.16,20.16,0,0,1-3.09-.35c-1.54-.26-3.08-.57-4.61-.9q-1.89-.42-3.75-.93C293.84,82.87,291.85,82.29,289.8,81.71Z"/></g></g></svg>