<svg xmlns="http://www.w3.org/2000/svg" viewBox="0 0 265.72 265.72" width="1000" height="1000"><defs><style>.cls-1{fill:none;}</style></defs><title>bomb_2</title><g id="Layer_2" data-name="Layer 2"><g id="Layer_1-2" data-name="Layer 1"><path d="M132,79a54.65,54.65,0,1,0,54.64,54.64A54.65,54.65,0,0,0,132,79Z"/><path d="M147.62,74.93,132.43,33.32,117.24,74.94a58.83,58.83,0,0,1,30.38,0Z"/><path d="M118.49,193.54l13.94,38.19,13.94-38.18a58.84,58.84,0,0,1-27.88,0Z"/><path d="M191.94,147.93l40.95-15-41.6-15.19a58.89,58.89,0,0,1,.65,30.14Z"/><path d="M73.62,117.76,31.94,133l41,15a58.83,58.83,0,0,1,.65-30.2Z"/><polygon points="189.64 76.08 162.84 89.02 176.69 102.87 189.64 76.08"/><polygon points="74.45 191.27 102.65 176.91 88.8 163.06 74.45 191.27"/><polygon points="190.24 191.87 175.38 163.17 161.54 177.01 190.24 191.87"/><polygon points="74.45 76.08 87.83 103.31 101.68 89.46 74.45 76.08"/><rect class="cls-1" width="265.72" height="265.72"/></g></g></svg>
