<?xml version="1.0" encoding="utf-8"?><svg class="ldi-e28dsq" width="100%" height="100%" xmlns="http://www.w3.org/2000/svg" xmlns:xlink="http://www.w3.org/1999/xlink" viewBox="0 0 100 100" preserveAspectRatio="xMidYMid" style="width:271px;webkit-user-select:none;webkit-transform-origin:135.5px 135.5px;webkit-perspective-origin:135.5px 135.5px;webkit-logical-width:271px;webkit-logical-height:271px;user-select:none;transform-origin:135.5px 135.5px;stroke-width:1px;r:0px;pointer-events:all;perspective-origin:135.5px 135.5px;overflow-y:hidden;overflow-x:hidden;overflow:hidden;inline-size:271px;height:271px;display:block;d:none;block-size:271px;background:rgba(0, 0, 0, 0) none repeat scroll 0% 0% / auto padding-box border-box" ><svg version="1.1" id="Layer_1" xmlns="http://www.w3.org/2000/svg" xmlns:xlink="http://www.w3.org/1999/xlink" x="0px" y="0px" viewBox="0 0 100 100" xml:space="preserve" class="" style="x:0px;webkit-user-select:none;webkit-transform-origin:50px 50px;webkit-perspective-origin:0px 0px;user-select:none;transform-origin:50px 50px;transform:none;stroke-width:1px;r:0px;pointer-events:all;perspective-origin:0px 0px;overflow-y:hidden;overflow-x:hidden;overflow:hidden;display:block" ><g class="" style="x:0px;webkit-user-select:none;webkit-transform-origin:50px 50px;webkit-perspective-origin:0px 0px;user-select:none;transform-origin:50px 50px;transform:none;stroke-width:1px;r:0px;pointer-events:all;perspective-origin:0px 0px" ><g class="" style="x:0px;webkit-user-select:none;webkit-transform-origin:50px 50px;webkit-transform:matrix(0.6, 0, 0, 0.6, 0, 0);webkit-perspective-origin:0px 0px;user-select:none;transform-origin:50px 50px;transform:matrix(0.6, 0, 0, 0.6, 0, 0);stroke-width:1px;r:0px;pointer-events:all;perspective-origin:0px 0px" ><g class="ld " style="y:0px;x:0px;webkit-user-select:none;webkit-transform-origin:50px 50px;webkit-perspective-origin:0px 0px;webkit-animation-duration:1s;webkit-animation-delay:-1s;webkit-animation:none 1s ease -1s 1 normal none running;user-select:none;transform-origin:50px 50px;transform:none;stroke-width:1px;r:0px;pointer-events:all;perspective-origin:0px 0px;direction:ltr;d:none" ><g class="" style="webkit-user-select:none;webkit-perspective-origin:0px 0px;user-select:none;stroke-width:1px;pointer-events:all;perspective-origin:0px 0px" ><style type="text/css" class="" style="x:0px;webkit-user-select:none;webkit-transform-origin:50px 50px;user-select:none;transform-origin:50px 50px;transform:none;stroke-width:1px;r:0px;pointer-events:all" >.st0{fill:#F4E6C8;} .st1{opacity:0.8;fill:#849B87;} .st2{fill:#D65A62;} .st3{fill:#E15C64;} .st4{fill:#F47E5F;} .st5{fill:#F7B26A;} .st6{fill:#FEE8A2;} .st7{fill:#ACBD81;} .st8{fill:#F5E169;} .st9{fill:#F0AF6B;} .st10{fill:#EA7C60;} .st11{fill:#A8B980;} .st12{fill:#829985;} .st13{fill:#798AAE;} .st14{fill:#8672A7;} .st15{fill:#CC5960;} .st16{fill:#E17A5F;} .st17{fill:#849B87;} .st18{opacity:0.8;fill:#E15C64;} .st19{opacity:0.8;fill:#F7B26A;} .st20{fill:#79A5B5;} .st21{opacity:0.8;fill:#79A5B4;} .st22{fill:#666766;}</style>
<g class="" style="x:0px;webkit-user-select:none;webkit-transform-origin:50px 50px;webkit-perspective-origin:0px 0px;user-select:none;transform-origin:50px 50px;transform:none;stroke-width:1px;r:0px;pointer-events:all;perspective-origin:0px 0px" ><path class="st3" d="M18,26L18,26c-4.4,0-8-3.6-8-8v0c0-4.4,3.6-8,8-8h0c4.4,0,8,3.6,8,8v0C26,22.4,22.4,26,18,26z" fill="rgb(225, 92, 100)" style="webkit-user-select:none;webkit-perspective-origin:0px 0px;user-select:none;r:0px;pointer-events:all;perspective-origin:0px 0px;fill:rgb(225, 92, 100);d:path('M 18 26 L 18 26 C 13.6 26 10 22.4 10 18 V 18 C 10 13.6 13.6 10 18 10 H 18 C 22.4 10 26 13.6 26 18 V 18 C 26 22.4 22.4 26 18 26 Z')" ></path></g>
<g class="" style="x:0px;webkit-user-select:none;webkit-transform-origin:50px 50px;webkit-perspective-origin:0px 0px;user-select:none;transform-origin:50px 50px;transform:none;stroke-width:1px;r:0px;pointer-events:all;perspective-origin:0px 0px" ><path class="st5" d="M18,47.3L18,47.3c-4.4,0-8-3.6-8-8v0c0-4.4,3.6-8,8-8h0c4.4,0,8,3.6,8,8v0C26,43.8,22.4,47.3,18,47.3z" fill="rgb(247, 178, 106)" style="webkit-user-select:none;webkit-perspective-origin:0px 0px;user-select:none;r:0px;pointer-events:all;perspective-origin:0px 0px;fill:rgb(247, 178, 106);d:path('M 18 47.3 L 18 47.3 C 13.6 47.3 10 43.7 10 39.3 V 39.3 C 10 34.9 13.6 31.3 18 31.3 H 18 C 22.4 31.3 26 34.9 26 39.3 V 39.3 C 26 43.8 22.4 47.3 18 47.3 Z')" ></path></g>
<g class="" style="x:0px;webkit-user-select:none;webkit-transform-origin:50px 50px;webkit-perspective-origin:0px 0px;user-select:none;transform-origin:50px 50px;transform:none;stroke-width:1px;r:0px;pointer-events:all;perspective-origin:0px 0px" ><path class="st4" d="M18,68.7L18,68.7c-4.4,0-8-3.6-8-8v0c0-4.4,3.6-8,8-8h0c4.4,0,8,3.6,8,8v0C26,65.1,22.4,68.7,18,68.7z" fill="rgb(244, 126, 95)" style="webkit-user-select:none;webkit-perspective-origin:0px 0px;user-select:none;r:0px;pointer-events:all;perspective-origin:0px 0px;fill:rgb(244, 126, 95);d:path('M 18 68.7 L 18 68.7 C 13.6 68.7 10 65.1 10 60.7 V 60.7 C 10 56.3 13.6 52.7 18 52.7 H 18 C 22.4 52.7 26 56.3 26 60.7 V 60.7 C 26 65.1 22.4 68.7 18 68.7 Z')" ></path></g>
<g class="" style="x:0px;webkit-user-select:none;webkit-transform-origin:50px 50px;webkit-perspective-origin:0px 0px;user-select:none;transform-origin:50px 50px;transform:none;stroke-width:1px;r:0px;pointer-events:all;perspective-origin:0px 0px" ><path class="st7" d="M18,90L18,90c-4.4,0-8-3.6-8-8v0c0-4.4,3.6-8,8-8h0c4.4,0,8,3.6,8,8v0C26,86.4,22.4,90,18,90z" fill="rgb(172, 189, 129)" style="webkit-user-select:none;webkit-perspective-origin:0px 0px;user-select:none;r:0px;pointer-events:all;perspective-origin:0px 0px;fill:rgb(172, 189, 129);d:path('M 18 90 L 18 90 C 13.6 90 10 86.4 10 82 V 82 C 10 77.6 13.6 74 18 74 H 18 C 22.4 74 26 77.6 26 82 V 82 C 26 86.4 22.4 90 18 90 Z')" ></path></g>
<g class="" style="x:0px;webkit-user-select:none;webkit-transform-origin:50px 50px;webkit-perspective-origin:0px 0px;user-select:none;transform-origin:50px 50px;transform:none;stroke-width:1px;r:0px;pointer-events:all;perspective-origin:0px 0px" ><path class="st4" d="M39.3,26L39.3,26c-4.4,0-8-3.6-8-8v0c0-4.4,3.6-8,8-8h0c4.4,0,8,3.6,8,8v0C47.3,22.4,43.8,26,39.3,26z" fill="rgb(244, 126, 95)" style="webkit-user-select:none;webkit-perspective-origin:0px 0px;user-select:none;r:0px;pointer-events:all;perspective-origin:0px 0px;fill:rgb(244, 126, 95);d:path('M 39.3 26 L 39.3 26 C 34.9 26 31.3 22.4 31.3 18 V 18 C 31.3 13.6 34.9 10 39.3 10 H 39.3 C 43.7 10 47.3 13.6 47.3 18 V 18 C 47.3 22.4 43.8 26 39.3 26 Z')" ></path></g>
<g class="" style="x:0px;webkit-user-select:none;webkit-transform-origin:50px 50px;webkit-perspective-origin:0px 0px;user-select:none;transform-origin:50px 50px;transform:none;stroke-width:1px;r:0px;pointer-events:all;perspective-origin:0px 0px" ><path class="st7" d="M39.3,47.3L39.3,47.3c-4.4,0-8-3.6-8-8v0c0-4.4,3.6-8,8-8h0c4.4,0,8,3.6,8,8v0C47.3,43.8,43.8,47.3,39.3,47.3z" fill="rgb(172, 189, 129)" style="webkit-user-select:none;webkit-perspective-origin:0px 0px;user-select:none;r:0px;pointer-events:all;perspective-origin:0px 0px;fill:rgb(172, 189, 129);d:path('M 39.3 47.3 L 39.3 47.3 C 34.9 47.3 31.3 43.7 31.3 39.3 V 39.3 C 31.3 34.9 34.9 31.3 39.3 31.3 H 39.3 C 43.7 31.3 47.3 34.9 47.3 39.3 V 39.3 C 47.3 43.8 43.8 47.3 39.3 47.3 Z')" ></path></g>
<g class="" style="x:0px;webkit-user-select:none;webkit-transform-origin:50px 50px;webkit-perspective-origin:0px 0px;user-select:none;transform-origin:50px 50px;transform:none;stroke-width:1px;r:0px;pointer-events:all;perspective-origin:0px 0px" ><path class="st5" d="M39.3,68.7L39.3,68.7c-4.4,0-8-3.6-8-8v0c0-4.4,3.6-8,8-8h0c4.4,0,8,3.6,8,8v0C47.3,65.1,43.8,68.7,39.3,68.7z" fill="rgb(247, 178, 106)" style="webkit-user-select:none;webkit-perspective-origin:0px 0px;user-select:none;r:0px;pointer-events:all;perspective-origin:0px 0px;fill:rgb(247, 178, 106);d:path('M 39.3 68.7 L 39.3 68.7 C 34.9 68.7 31.3 65.1 31.3 60.7 V 60.7 C 31.3 56.3 34.9 52.7 39.3 52.7 H 39.3 C 43.7 52.7 47.3 56.3 47.3 60.7 V 60.7 C 47.3 65.1 43.8 68.7 39.3 68.7 Z')" ></path></g>
<g class="" style="x:0px;webkit-user-select:none;webkit-transform-origin:50px 50px;webkit-perspective-origin:0px 0px;user-select:none;transform-origin:50px 50px;transform:none;stroke-width:1px;r:0px;pointer-events:all;perspective-origin:0px 0px" ><path class="st3" d="M39.3,90L39.3,90c-4.4,0-8-3.6-8-8v0c0-4.4,3.6-8,8-8h0c4.4,0,8,3.6,8,8v0C47.3,86.4,43.8,90,39.3,90z" fill="rgb(225, 92, 100)" style="webkit-user-select:none;webkit-perspective-origin:0px 0px;user-select:none;r:0px;pointer-events:all;perspective-origin:0px 0px;fill:rgb(225, 92, 100);d:path('M 39.3 90 L 39.3 90 C 34.9 90 31.3 86.4 31.3 82 V 82 C 31.3 77.6 34.9 74 39.3 74 H 39.3 C 43.7 74 47.3 77.6 47.3 82 V 82 C 47.3 86.4 43.8 90 39.3 90 Z')" ></path></g>
<g class="" style="x:0px;webkit-user-select:none;webkit-transform-origin:50px 50px;webkit-perspective-origin:0px 0px;user-select:none;transform-origin:50px 50px;transform:none;stroke-width:1px;r:0px;pointer-events:all;perspective-origin:0px 0px" ><path class="st5" d="M60.7,26L60.7,26c-4.4,0-8-3.6-8-8v0c0-4.4,3.6-8,8-8h0c4.4,0,8,3.6,8,8v0C68.7,22.4,65.1,26,60.7,26z" fill="rgb(247, 178, 106)" style="webkit-user-select:none;webkit-perspective-origin:0px 0px;user-select:none;r:0px;pointer-events:all;perspective-origin:0px 0px;fill:rgb(247, 178, 106);d:path('M 60.7 26 L 60.7 26 C 56.3 26 52.7 22.4 52.7 18 V 18 C 52.7 13.6 56.3 10 60.7 10 H 60.7 C 65.1 10 68.7 13.6 68.7 18 V 18 C 68.7 22.4 65.1 26 60.7 26 Z')" ></path></g>
<g class="" style="x:0px;webkit-user-select:none;webkit-transform-origin:50px 50px;webkit-perspective-origin:0px 0px;user-select:none;transform-origin:50px 50px;transform:none;stroke-width:1px;r:0px;pointer-events:all;perspective-origin:0px 0px" ><path class="st3" d="M60.7,47.3L60.7,47.3c-4.4,0-8-3.6-8-8v0c0-4.4,3.6-8,8-8h0c4.4,0,8,3.6,8,8v0C68.7,43.8,65.1,47.3,60.7,47.3z" fill="rgb(225, 92, 100)" style="webkit-user-select:none;webkit-perspective-origin:0px 0px;user-select:none;r:0px;pointer-events:all;perspective-origin:0px 0px;fill:rgb(225, 92, 100);d:path('M 60.7 47.3 L 60.7 47.3 C 56.3 47.3 52.7 43.7 52.7 39.3 V 39.3 C 52.7 34.9 56.3 31.3 60.7 31.3 H 60.7 C 65.1 31.3 68.7 34.9 68.7 39.3 V 39.3 C 68.7 43.8 65.1 47.3 60.7 47.3 Z')" ></path></g>
<g class="" style="x:0px;webkit-user-select:none;webkit-transform-origin:50px 50px;webkit-perspective-origin:0px 0px;user-select:none;transform-origin:50px 50px;transform:none;stroke-width:1px;r:0px;pointer-events:all;perspective-origin:0px 0px" ><path class="st7" d="M60.7,68.7L60.7,68.7c-4.4,0-8-3.6-8-8v0c0-4.4,3.6-8,8-8h0c4.4,0,8,3.6,8,8v0C68.7,65.1,65.1,68.7,60.7,68.7z" fill="rgb(172, 189, 129)" style="webkit-user-select:none;webkit-perspective-origin:0px 0px;user-select:none;r:0px;pointer-events:all;perspective-origin:0px 0px;fill:rgb(172, 189, 129);d:path('M 60.7 68.7 L 60.7 68.7 C 56.3 68.7 52.7 65.1 52.7 60.7 V 60.7 C 52.7 56.3 56.3 52.7 60.7 52.7 H 60.7 C 65.1 52.7 68.7 56.3 68.7 60.7 V 60.7 C 68.7 65.1 65.1 68.7 60.7 68.7 Z')" ></path></g>
<g class="" style="x:0px;webkit-user-select:none;webkit-transform-origin:50px 50px;webkit-perspective-origin:0px 0px;user-select:none;transform-origin:50px 50px;transform:none;stroke-width:1px;r:0px;pointer-events:all;perspective-origin:0px 0px" ><path class="st4" d="M60.7,90L60.7,90c-4.4,0-8-3.6-8-8v0c0-4.4,3.6-8,8-8h0c4.4,0,8,3.6,8,8v0C68.7,86.4,65.1,90,60.7,90z" fill="rgb(244, 126, 95)" style="webkit-user-select:none;webkit-perspective-origin:0px 0px;user-select:none;r:0px;pointer-events:all;perspective-origin:0px 0px;fill:rgb(244, 126, 95);d:path('M 60.7 90 L 60.7 90 C 56.3 90 52.7 86.4 52.7 82 V 82 C 52.7 77.6 56.3 74 60.7 74 H 60.7 C 65.1 74 68.7 77.6 68.7 82 V 82 C 68.7 86.4 65.1 90 60.7 90 Z')" ></path></g>
<g class="" style="x:0px;webkit-user-select:none;webkit-transform-origin:50px 50px;webkit-perspective-origin:0px 0px;user-select:none;transform-origin:50px 50px;transform:none;stroke-width:1px;r:0px;pointer-events:all;perspective-origin:0px 0px" ><path class="st7" d="M82,26L82,26c-4.4,0-8-3.6-8-8v0c0-4.4,3.6-8,8-8h0c4.4,0,8,3.6,8,8v0C90,22.4,86.4,26,82,26z" fill="rgb(172, 189, 129)" style="webkit-user-select:none;webkit-perspective-origin:0px 0px;user-select:none;r:0px;pointer-events:all;perspective-origin:0px 0px;fill:rgb(172, 189, 129);d:path('M 82 26 L 82 26 C 77.6 26 74 22.4 74 18 V 18 C 74 13.6 77.6 10 82 10 H 82 C 86.4 10 90 13.6 90 18 V 18 C 90 22.4 86.4 26 82 26 Z')" ></path></g>
<g class="" style="x:0px;webkit-user-select:none;webkit-transform-origin:50px 50px;webkit-perspective-origin:0px 0px;user-select:none;transform-origin:50px 50px;transform:none;stroke-width:1px;r:0px;pointer-events:all;perspective-origin:0px 0px" ><path class="st4" d="M82,47.3L82,47.3c-4.4,0-8-3.6-8-8v0c0-4.4,3.6-8,8-8h0c4.4,0,8,3.6,8,8v0C90,43.8,86.4,47.3,82,47.3z" fill="rgb(244, 126, 95)" style="webkit-user-select:none;webkit-perspective-origin:0px 0px;user-select:none;r:0px;pointer-events:all;perspective-origin:0px 0px;fill:rgb(244, 126, 95);d:path('M 82 47.3 L 82 47.3 C 77.6 47.3 74 43.7 74 39.3 V 39.3 C 74 34.9 77.6 31.3 82 31.3 H 82 C 86.4 31.3 90 34.9 90 39.3 V 39.3 C 90 43.8 86.4 47.3 82 47.3 Z')" ></path></g>
<g class="" style="x:0px;webkit-user-select:none;webkit-transform-origin:50px 50px;webkit-perspective-origin:0px 0px;user-select:none;transform-origin:50px 50px;transform:none;stroke-width:1px;r:0px;pointer-events:all;perspective-origin:0px 0px" ><path class="st3" d="M82,68.7L82,68.7c-4.4,0-8-3.6-8-8v0c0-4.4,3.6-8,8-8h0c4.4,0,8,3.6,8,8v0C90,65.1,86.4,68.7,82,68.7z" fill="rgb(225, 92, 100)" style="webkit-user-select:none;webkit-perspective-origin:0px 0px;user-select:none;r:0px;pointer-events:all;perspective-origin:0px 0px;fill:rgb(225, 92, 100);d:path('M 82 68.7 L 82 68.7 C 77.6 68.7 74 65.1 74 60.7 V 60.7 C 74 56.3 77.6 52.7 82 52.7 H 82 C 86.4 52.7 90 56.3 90 60.7 V 60.7 C 90 65.1 86.4 68.7 82 68.7 Z')" ></path></g>
<g class="" style="x:0px;webkit-user-select:none;webkit-transform-origin:50px 50px;webkit-perspective-origin:0px 0px;user-select:none;transform-origin:50px 50px;transform:none;stroke-width:1px;r:0px;pointer-events:all;perspective-origin:0px 0px" ><path class="st5" d="M82,90L82,90c-4.4,0-8-3.6-8-8v0c0-4.4,3.6-8,8-8h0c4.4,0,8,3.6,8,8v0C90,86.4,86.4,90,82,90z" fill="rgb(247, 178, 106)" style="webkit-user-select:none;webkit-perspective-origin:0px 0px;user-select:none;r:0px;pointer-events:all;perspective-origin:0px 0px;fill:rgb(247, 178, 106);d:path('M 82 90 L 82 90 C 77.6 90 74 86.4 74 82 V 82 C 74 77.6 77.6 74 82 74 H 82 C 86.4 74 90 77.6 90 82 V 82 C 90 86.4 86.4 90 82 90 Z')" ></path></g>
<metadata xmlns:d="https://loading.io/stock/" class="" style="x:0px;webkit-user-select:none;webkit-transform-origin:50px 50px;user-select:none;transform-origin:50px 50px;transform:none;stroke-width:1px;r:0px;pointer-events:all" ><d:name class="" style="x:0px;webkit-user-select:none;webkit-transform-origin:50px 50px;user-select:none;transform-origin:50px 50px;transform:none;stroke-width:1px;r:0px;pointer-events:all" >cell</d:name>


<d:tags class="" style="x:0px;webkit-user-select:none;webkit-transform-origin:50px 50px;user-select:none;transform-origin:50px 50px;transform:none;stroke-width:1px;r:0px;pointer-events:all" >grid,circle,ball,bingo,frame,cell,spinner</d:tags>


<d:license class="" style="x:0px;webkit-user-select:none;webkit-transform-origin:50px 50px;user-select:none;transform-origin:50px 50px;transform:none;stroke-width:1px;r:0px;pointer-events:all" >cc0</d:license>


<d:slug class="" style="x:0px;webkit-user-select:none;webkit-transform-origin:50px 50px;user-select:none;transform-origin:50px 50px;transform:none;stroke-width:1px;r:0px;pointer-events:all" >e28dsq</d:slug></metadata></g></g></g></g>
<style type="text/css" class="" style="x:0px;webkit-user-select:none;webkit-transform-origin:50px 50px;user-select:none;transform-origin:50px 50px;transform:none;stroke-width:1px;r:0px;pointer-events:all" >path,ellipse,circle,rect,polygon,polyline,line { stroke-width: 0; }@keyframes ld-breath {
  0% {
    -webkit-transform: scale(0.86);
    transform: scale(0.86);
  }
  50% {
    -webkit-transform: scale(1.06);
    transform: scale(1.06);
  }
  100% {
    -webkit-transform: scale(0.86);
    transform: scale(0.86);
  }
}
@-webkit-keyframes ld-breath {
  0% {
    -webkit-transform: scale(0.86);
    transform: scale(0.86);
  }
  50% {
    -webkit-transform: scale(1.06);
    transform: scale(1.06);
  }
  100% {
    -webkit-transform: scale(0.86);
    transform: scale(0.86);
  }
}
.ld.ld-breath {
  -webkit-animation: ld-breath 1s infinite;
  animation: ld-breath 1s infinite;
}</style></svg></svg>