<svg xmlns="http://www.w3.org/2000/svg" viewBox="0 0 226.53 226"><defs><style>.cls-1{fill:#ededed;}</style></defs><title>Asset 9numbers</title><g id="Layer_2" data-name="Layer 2"><g id="Layer_1-2" data-name="Layer 1"><path class="cls-1" d="M90.46,57.44C84.69,47.55,79.11,38,73.34,28.07L59.59,36,76.26,65.11c-.23.57-.28,1-.52,1.23-3.36,3.14-6.56,8.47-10.19,8.79-4,.34-8.46-3.82-12.62-6.19C41.83,62.6,30.79,56.18,19.35,49.57,40.46,19.91,68.74,3.86,105.05,0V19.24c0,10-.06,20.09,0,30.13,0,3-.57,4.74-4.13,5.14S94.24,56.34,90.46,57.44Z"/><path class="cls-1" d="M19.32,176.63,65.25,150l10.83,11.42L59.57,190.17l13.77,8,17.09-29.42,14.22,3.95V226C68.61,222.63,40.7,206.12,19.32,176.63Z"/><path class="cls-1" d="M121.82,226V172.86l14.25-4.06c5.57,9.53,11.24,19.23,17.18,29.37L167,190.22c-5.69-9.9-11.2-19.49-16.77-29.2L162,150.47l45.22,26.15C186,206,158.12,222.43,121.82,226Z"/><path class="cls-1" d="M121.5,0C157.79,3.84,185.93,20,207.05,49.48c-3.5,2.09-6.74,4.08-10,6-10.75,6.24-21.56,12.36-32.23,18.73-2.9,1.73-4.81,1.82-7-1s-4.91-5-7.65-7.71l16.85-29.44L153.3,28,136.07,57.48c-1.22-.36-2.25-.64-3.26-1-3.63-1.17-9-1.34-10.45-3.8-1.9-3.22-.82-8.26-.84-12.52C121.47,27,121.5,13.85,121.5,0Z"/><path class="cls-1" d="M57.52,90.19l-4,14.55H20.21v16.58c5.75,0,11.61,0,17.46,0,5,0,11.21-1.56,14.71.79,3.25,2.19,3.62,8.64,5.45,13.74L11.34,162.72c-15.11-33.11-15.11-65.82,0-99.2Z"/><path class="cls-1" d="M206.56,120.93V104.88H190.05c-.56,0-1.12,0-1.68,0-5-.13-11.15,1.43-14.68-.92-3.08-2-3.21-8.51-4.83-13.64l46.36-26.8c15,33.14,15.16,65.85,0,99.14l-46.07-26.54c1-4.15,1.76-8.32,3.25-12.19.48-1.27,2.95-2.44,4.55-2.49,7.81-.26,15.63-.1,23.45-.14C202.37,121.29,204.36,121.07,206.56,120.93Z"/><path class="cls-1" d="M113.22,77.18c19.65,0,35.87,16.43,35.91,36.44,0,18.94-16.56,35.25-35.87,35.23a36,36,0,0,1-35.87-36.34C77.57,93.39,94,77.22,113.22,77.18Zm0,55.94a19.93,19.93,0,0,0,20.25-20A20.14,20.14,0,1,0,93.17,113,19.77,19.77,0,0,0,113.19,133.12Z"/></g></g></svg>