<svg xmlns="http://www.w3.org/2000/svg" viewBox="0 0 395.35 390.34"><defs><style>.cls-1{fill:#ededed;}</style></defs><title>bomb_1</title><g id="Layer_2" data-name="Layer 2"><g id="Layer_1-2" data-name="Layer 1"><path class="cls-1" d="M197,89.93a107.5,107.5,0,1,0,107.5,107.5A107.49,107.49,0,0,0,197,89.93Z"/><path class="cls-1" d="M227.6,81.86,197.71,0l-29.9,81.88a116,116,0,0,1,59.79,0Z"/><path class="cls-1" d="M170.28,315.21l27.43,75.13,27.42-75.11a116,116,0,0,1-54.85,0Z"/><path class="cls-1" d="M314.77,225.48l80.58-29.42L313.5,166.18a115.88,115.88,0,0,1,1.27,59.3Z"/><path class="cls-1" d="M82,166.12,0,196.06l80.72,29.47A115.88,115.88,0,0,1,82,166.12Z"/><polygon class="cls-1" points="310.25 84.13 257.54 109.59 284.79 136.84 310.25 84.13"/><polygon class="cls-1" points="83.64 310.74 139.12 282.5 111.88 255.26 83.64 310.74"/><polygon class="cls-1" points="311.43 311.92 282.21 255.46 254.97 282.7 311.43 311.92"/><polygon class="cls-1" points="83.64 84.13 109.97 137.7 137.21 110.45 83.64 84.13"/></g></g></svg>