<svg xmlns="http://www.w3.org/2000/svg" viewBox="0 0 208.41 250"><defs><style>.cls-1{fill:#ededed;}</style></defs><title>random_game</title><g id="Layer_2" data-name="Layer 2"><g id="Layer_1-2" data-name="Layer 1"><path class="cls-1" d="M205.76,145.16c-.85-2.62-2.73-4.1-6.22-4.07a36.14,36.14,0,0,0-8.89,1.61c-4.13,1.07-8.2,2.31-12.54,2.68a31.11,31.11,0,0,1-9.34-.35,27.21,27.21,0,0,1-10.53-4.84,20.8,20.8,0,0,1-7.44-9.56,21,21,0,0,1-1.25-9.24,26,26,0,0,1,1.49-7,20.65,20.65,0,0,1,9.22-10.4,28.7,28.7,0,0,1,10.86-3.75,31.94,31.94,0,0,1,8.9.11,72.12,72.12,0,0,1,13.23,3.63,19,19,0,0,0,5.59,1.44c4.45.09,6.27-1.27,7.78-4.74s1.75-7.15,1.79-10.83a19.19,19.19,0,0,0-.21-2c-.23-2.21-.34-4.43-.7-6.62-.46-2.83-1.06-5.65-1.72-8.45q-1.72-7.38-3.62-14.72c-1-3.73-2.09-7.44-3.16-11.14-.43-1.5-.93-3-1.39-4.46-5.84,1.31-11.52,2.61-17.22,3.84-4.11.89-8.23,1.77-12.38,2.5Q161.14,50,154.2,50.9c-3.29.44-6.62.73-9.94,1a23.31,23.31,0,0,1-4.65-.19,79,79,0,0,1-7.85-1.37,7,7,0,0,1-4.43-3c-1.32-2.11-1-4.25-.14-6.4,1.37-3.39,2.85-6.76,4.11-10.19a22.18,22.18,0,0,0-8.23-26.06A26.41,26.41,0,0,0,109.38.07a53.71,53.71,0,0,0-7.28.17,22.49,22.49,0,0,0-7.36,1.83A23.28,23.28,0,0,0,86,8.25a20.86,20.86,0,0,0-4.16,6.44,18.13,18.13,0,0,0-1.3,9.49,59.6,59.6,0,0,0,1,6c1.17,4.27,2.6,8.48,3.76,12.74.86,3.14-.67,5.59-4.32,6.69s-7.63,1.2-11.48,1.28c-4.34.1-8.69-.12-13-.36-3.21-.18-6.43-.5-9.61-1-4.35-.65-8.68-1.45-13-2.28C28.27,46.16,22.66,45,17.05,43.83c-2.18-.44-4.35-.94-6.62-1.43C9,47.52,7.62,52.51,6.29,57.52,5.47,60.64,4.7,63.77,4,66.91c-.81,3.84-1.56,7.69-2.19,11.55A54.68,54.68,0,0,0,1,86.2c-.09,4.13.1,8.27.17,12.4a18.08,18.08,0,0,0,1.32,6.58,5.13,5.13,0,0,0,4.43,3.52,21.82,21.82,0,0,0,7.36-.7c5.34-1.31,10.54-3.1,16.14-3.55a30.88,30.88,0,0,1,8.49.32,26.36,26.36,0,0,1,13.91,7.55,20.35,20.35,0,0,1,5.81,13.91,24.62,24.62,0,0,1-.41,4.83,19.81,19.81,0,0,1-8.45,13.59c-6.48,4.64-13.85,6.14-22,4.9a72.86,72.86,0,0,1-12.61-3.47c-2.46-.85-4.86-1.9-7.7-1.52a6.87,6.87,0,0,0-5.66,4A15.33,15.33,0,0,0,.09,155.1c0,3.35-.2,6.71.06,10a72.33,72.33,0,0,0,1.47,8.69c.77,3.74,1.56,7.48,2.5,11.19,1,4.16,2.23,8.3,3.4,12.44.93,3.31,1.92,6.61,2.9,9.95a3.71,3.71,0,0,0,.58,0c5.55-1.25,11.1-2.53,16.65-3.75,3.52-.77,7.05-1.56,10.6-2.19,4.83-.86,9.68-1.61,14.53-2.34,2.6-.39,5.23-.75,7.86-.93,2.33-.15,4.68,0,7,0a30.84,30.84,0,0,1,9,1.52c4,1.26,5.9,4.8,4.53,8.23-1,2.6-2.11,5.2-3.19,7.79a31.11,31.11,0,0,0-2.48,9.43,20.81,20.81,0,0,0,2,11.16,23.77,23.77,0,0,0,8.43,9.54c4.64,3,10,3.94,15.55,4.15a34.45,34.45,0,0,0,5.16-.37,25,25,0,0,0,7.6-2.13,25.89,25.89,0,0,0,7.86-5.84,20.38,20.38,0,0,0,5.65-12.81,23.89,23.89,0,0,0-1-8.38c-1.33-4.61-2.77-9.21-4.09-13.83a4.68,4.68,0,0,1,.75-3.91,6.93,6.93,0,0,1,5.26-2.77c3.87-.47,7.78-.85,11.69-1,3.57-.1,7.15.15,10.73.36,2.86.16,5.73.38,8.56.79q6.22.88,12.39,2.09c6.85,1.33,13.67,2.76,20.5,4.16,1.69.34,3.37.72,5,1.07a1.33,1.33,0,0,0,.17-.25c1.68-6.19,3.4-12.38,5-18.58a127.77,127.77,0,0,0,3.71-18.29c.38-3.44.75-6.9.84-10.35a80.31,80.31,0,0,0-.43-9.17A26,26,0,0,0,205.76,145.16ZM109.23,181a11.22,11.22,0,0,1-6.08,3,11.59,11.59,0,0,1-6.59-.74,9.2,9.2,0,0,1-5.33-5.92,11.75,11.75,0,0,1,.31-8.4,9.38,9.38,0,0,1,6.64-5.56,11.49,11.49,0,0,1,7.69.48,10.52,10.52,0,0,1,6.16,7.33,5,5,0,0,1,.25,1.75A9.93,9.93,0,0,1,109.23,181Zm33.27-71.53a40.48,40.48,0,0,1-2.23,6.81,42.28,42.28,0,0,1-3.92,7.09,42.92,42.92,0,0,1-4.25,5.34,44.79,44.79,0,0,1-7.94,6.72,42.58,42.58,0,0,1-8.08,4.16c-1.23.48-2.49.86-3.75,1.24-.2.06-.31.09-.31.33,0,.84-.07,1.68-.1,2.52,0,2.09,0,4.2-.17,6.28a8.74,8.74,0,0,1-2.12,5,11.07,11.07,0,0,1-5.89,3.71,11.42,11.42,0,0,1-5.36,0,10,10,0,0,1-7.64-7.22,17.64,17.64,0,0,1-.61-4.82,38.9,38.9,0,0,1-.13-5,31.54,31.54,0,0,1,1.13-9.06,15.43,15.43,0,0,1,4.1-7,17,17,0,0,1,7-3.85c1.8-.55,3.69-.76,5.48-1.35a20.72,20.72,0,0,0,8-4.67,18.42,18.42,0,0,0,5.45-10.13,23.26,23.26,0,0,0,.08-7.4,8.92,8.92,0,0,0-1.63-3.33,15.65,15.65,0,0,0-2.67-3.18,16.74,16.74,0,0,0-3.6-2.49,18.24,18.24,0,0,0-6.61-2,21.55,21.55,0,0,0-6.88.44,22.21,22.21,0,0,0-9.07,4.35A14.06,14.06,0,0,0,88,95.3a43.64,43.64,0,0,1-4.44,6,10.62,10.62,0,0,1-5.83,3.09,11.13,11.13,0,0,1-6.86-.85,9.78,9.78,0,0,1-5.58-6.81A13.21,13.21,0,0,1,65.94,89a23.37,23.37,0,0,1,4.69-7.58,42.89,42.89,0,0,1,9.47-7.88,54.84,54.84,0,0,1,10.52-5.15,48.67,48.67,0,0,1,6.95-1.94,32.36,32.36,0,0,1,6.5-.66,46.83,46.83,0,0,1,10.61,1.12,43.31,43.31,0,0,1,8.65,3,36.79,36.79,0,0,1,6.26,3.75,38.91,38.91,0,0,1,3.74,3.17,32.47,32.47,0,0,1,4.72,5.79,33.85,33.85,0,0,1,3.9,8.57,34.25,34.25,0,0,1,1.07,4.9,35.55,35.55,0,0,1,.4,3.69A37.63,37.63,0,0,1,142.5,109.46Z"/></g></g></svg>