<svg xmlns="http://www.w3.org/2000/svg" viewBox="0 0 371.5 371.5"><defs><style>.cls-1{fill:#ededed;}</style></defs><title>takuzu_2</title><g id="Layer_2" data-name="Layer 2"><g id="Layer_1-2" data-name="Layer 1"><path class="cls-1" d="M341.83,7A22.7,22.7,0,0,1,364.5,29.67V147.25a22.69,22.69,0,0,1-22.67,22.66H224.25a22.69,22.69,0,0,1-22.67-22.66V29.67A22.7,22.7,0,0,1,224.25,7H341.83m0-7H224.25a29.67,29.67,0,0,0-29.67,29.67V147.25a29.67,29.67,0,0,0,29.67,29.66H341.83a29.67,29.67,0,0,0,29.67-29.66V29.67A29.67,29.67,0,0,0,341.83,0Z"/><path class="cls-1" d="M308.06,88.69a80.8,80.8,0,0,1-1.32,15.2,34.62,34.62,0,0,1-4.35,11.81,21.4,21.4,0,0,1-8,7.66,24.92,24.92,0,0,1-12.13,2.71,24.64,24.64,0,0,1-11.48-2.43,18.84,18.84,0,0,1-7.51-7.16,33.31,33.31,0,0,1-4.05-11.62A93,93,0,0,1,258.06,89a79.21,79.21,0,0,1,1.34-15.17A35.27,35.27,0,0,1,263.76,62a21.1,21.1,0,0,1,7.93-7.66,28.4,28.4,0,0,1,23.6-.28,18.91,18.91,0,0,1,7.52,7.15,33.66,33.66,0,0,1,4.05,11.62A93.24,93.24,0,0,1,308.06,88.69Zm-9.84.67q0-5.42-.39-9.72a58.31,58.31,0,0,0-1.14-7.6,25,25,0,0,0-2-5.67,13.72,13.72,0,0,0-2.87-3.91A10.35,10.35,0,0,0,288,60.23a15.48,15.48,0,0,0-4.83-.7,12.51,12.51,0,0,0-7.71,2.23,15,15,0,0,0-4.67,6.15,32.55,32.55,0,0,0-2.32,9.16,97.26,97.26,0,0,0-.61,11.29,95.88,95.88,0,0,0,.84,13.77,30.41,30.41,0,0,0,2.65,9.24,12,12,0,0,0,4.64,5.2,13.52,13.52,0,0,0,6.84,1.62,14,14,0,0,0,5.5-1,11.49,11.49,0,0,0,4.08-2.87,15.65,15.65,0,0,0,2.82-4.5,31.18,31.18,0,0,0,1.79-5.81,48.22,48.22,0,0,0,.92-6.9Q298.22,93.38,298.22,89.36Z"/><path class="cls-1" d="M341.83,194.58H224.25a29.68,29.68,0,0,0-29.67,29.67V341.83a29.68,29.68,0,0,0,29.67,29.67H341.83a29.68,29.68,0,0,0,29.67-29.67V224.25A29.68,29.68,0,0,0,341.83,194.58ZM304,316a3.8,3.8,0,0,1-.43,1.12,1.77,1.77,0,0,1-.61.61,1.54,1.54,0,0,1-.72.18H266.32a1.42,1.42,0,0,1-.69-.18,2.2,2.2,0,0,1-.61-.61,3.53,3.53,0,0,1-.45-1.12,8.11,8.11,0,0,1-.16-1.7,7.81,7.81,0,0,1,.16-1.65,4.84,4.84,0,0,1,.4-1.14,1.91,1.91,0,0,1,.58-.69,1.32,1.32,0,0,1,.77-.24h14.35V258.29l-13.28,7.92a6.19,6.19,0,0,1-1.62.63,1.08,1.08,0,0,1-1-.24,2,2,0,0,1-.5-1.14,12.48,12.48,0,0,1-.13-2,11.47,11.47,0,0,1,.08-1.54,4.39,4.39,0,0,1,.24-1.06,2.08,2.08,0,0,1,.45-.74,3.68,3.68,0,0,1,.77-.64l15.83-10.15a2,2,0,0,1,.53-.26,8.09,8.09,0,0,1,.8-.21,5.68,5.68,0,0,1,1.11-.14c.43,0,1,0,1.59,0a18.09,18.09,0,0,1,2.13.1,6,6,0,0,1,1.33.29,1.17,1.17,0,0,1,.63.48,1.24,1.24,0,0,1,.16.61v60.4h12.43a1.44,1.44,0,0,1,.8.24,1.79,1.79,0,0,1,.61.69,3.82,3.82,0,0,1,.37,1.14,8.68,8.68,0,0,1,.14,1.65A8.11,8.11,0,0,1,304,316Z"/><path class="cls-1" d="M147.25,201.58a22.69,22.69,0,0,1,22.66,22.67V341.83a22.69,22.69,0,0,1-22.66,22.67H29.67A22.7,22.7,0,0,1,7,341.83V224.25a22.7,22.7,0,0,1,22.67-22.67H147.25m0-7H29.67A29.67,29.67,0,0,0,0,224.25V341.83A29.67,29.67,0,0,0,29.67,371.5H147.25a29.67,29.67,0,0,0,29.66-29.67V224.25a29.67,29.67,0,0,0-29.66-29.67Z"/><path class="cls-1" d="M113.47,283.27a80.84,80.84,0,0,1-1.31,15.2,34.76,34.76,0,0,1-4.36,11.82,21.38,21.38,0,0,1-8,7.65,24.77,24.77,0,0,1-12.12,2.71,24.64,24.64,0,0,1-11.48-2.43,18.75,18.75,0,0,1-7.51-7.15,33.46,33.46,0,0,1-4-11.62,92.15,92.15,0,0,1-1.21-15.84,80,80,0,0,1,1.34-15.17,35.7,35.7,0,0,1,4.36-11.84A21,21,0,0,1,77.11,249a24.61,24.61,0,0,1,12.06-2.71,24.79,24.79,0,0,1,11.54,2.43,18.81,18.81,0,0,1,7.51,7.15,33.38,33.38,0,0,1,4,11.62A93.19,93.19,0,0,1,113.47,283.27Zm-9.83.68q0-5.43-.39-9.73a58.14,58.14,0,0,0-1.14-7.59,25.16,25.16,0,0,0-2-5.67,13.29,13.29,0,0,0-2.88-3.91,10.26,10.26,0,0,0-3.82-2.24,15.84,15.84,0,0,0-4.84-.7,12.49,12.49,0,0,0-7.71,2.24,15.1,15.1,0,0,0-4.66,6.14,32.22,32.22,0,0,0-2.32,9.16,110,110,0,0,0,.22,25.06A30.55,30.55,0,0,0,76.8,306a12,12,0,0,0,4.63,5.19,13.56,13.56,0,0,0,6.85,1.62,14,14,0,0,0,5.5-1,11.56,11.56,0,0,0,4.08-2.88,15.65,15.65,0,0,0,2.82-4.5,31.18,31.18,0,0,0,1.79-5.81,49.68,49.68,0,0,0,.92-6.9Q103.65,288,103.64,284Z"/><path class="cls-1" d="M147.25,0H29.67A29.67,29.67,0,0,0,0,29.67V147.25a29.66,29.66,0,0,0,29.67,29.66H147.25a29.66,29.66,0,0,0,29.66-29.66V29.67A29.66,29.66,0,0,0,147.25,0ZM109.4,121.4a3.39,3.39,0,0,1-.42,1.11,1.62,1.62,0,0,1-.61.61,1.44,1.44,0,0,1-.72.19H71.74a1.28,1.28,0,0,1-.69-.19,1.86,1.86,0,0,1-.61-.61A3.38,3.38,0,0,1,70,121.4a7.49,7.49,0,0,1-.16-1.7,7.2,7.2,0,0,1,.16-1.65,4.84,4.84,0,0,1,.4-1.14,1.91,1.91,0,0,1,.58-.69,1.32,1.32,0,0,1,.77-.24H86.08V63.71L72.8,71.62a5.71,5.71,0,0,1-1.62.64,1.1,1.1,0,0,1-1-.24,1.89,1.89,0,0,1-.5-1.14,12.33,12.33,0,0,1-.14-2,13.29,13.29,0,0,1,.08-1.54,5.42,5.42,0,0,1,.24-1.06,2.46,2.46,0,0,1,.45-.75,4.73,4.73,0,0,1,.77-.63L86.93,54.73a2.09,2.09,0,0,1,.54-.27,7.81,7.81,0,0,1,.79-.21,6.78,6.78,0,0,1,1.12-.13q.63,0,1.59,0a17.82,17.82,0,0,1,2.13.11,5.86,5.86,0,0,1,1.32.29,1.09,1.09,0,0,1,.8,1.09V116h12.43a1.47,1.47,0,0,1,.8.24,1.79,1.79,0,0,1,.61.69,4.12,4.12,0,0,1,.37,1.14,8.76,8.76,0,0,1,.13,1.65A7.49,7.49,0,0,1,109.4,121.4Z"/></g></g></svg>