<svg xmlns="http://www.w3.org/2000/svg" viewBox="0 0 223.85 223.86"><defs><style>.cls-1{fill:#ededed;}</style></defs><title>Asset 10numbers</title><g id="Layer_2" data-name="Layer 2"><g id="Layer_1-2" data-name="Layer 1"><path class="cls-1" d="M95.82,45.53V95.82H45.53A68.42,68.42,0,0,1,95.82,45.53Z"/><path class="cls-1" d="M119.4,44v51.8h-15V44L105,44a69.08,69.08,0,0,1,13.89,0Z"/><path class="cls-1" d="M178.33,95.82H128V45.53A68.44,68.44,0,0,1,178.33,95.82Z"/><path class="cls-1" d="M180.24,111.93a69.25,69.25,0,0,1-.35,6.95c0,.18,0,.36-.06.53H128v-15h51.8c0,.18,0,.35.06.53A69.4,69.4,0,0,1,180.24,111.93Z"/><rect class="cls-1" x="104.45" y="104.45" width="14.96" height="14.96"/><path class="cls-1" d="M95.82,104.45v15H44c0-.17,0-.35-.06-.53A71.2,71.2,0,0,1,44,105c0-.18,0-.35.06-.53Z"/><path class="cls-1" d="M178.33,128A68.43,68.43,0,0,1,128,178.33V128Z"/><path class="cls-1" d="M95.82,128v50.29A68.4,68.4,0,0,1,45.53,128Z"/><path class="cls-1" d="M119.4,128v51.8l-.53.06a71.1,71.1,0,0,1-13.89,0l-.53-.06V128Z"/><path class="cls-1" d="M223.85,104.45H185a74.62,74.62,0,0,0-1.4-8.63H223C223.36,98.67,223.67,101.55,223.85,104.45Z"/><path class="cls-1" d="M40.21,95.82a72.53,72.53,0,0,0-1.4,8.63H0q.29-4.35.9-8.63Z"/><path class="cls-1" d="M40.21,128H.9q-.61-4.26-.9-8.62H38.81A71.71,71.71,0,0,0,40.21,128Z"/><path class="cls-1" d="M223.85,119.41c-.18,2.91-.49,5.78-.9,8.62H183.64a73.75,73.75,0,0,0,1.4-8.62Z"/><path class="cls-1" d="M128,183.64V223c-2.84.41-5.72.72-8.63.9V185A69.62,69.62,0,0,0,128,183.64Z"/><path class="cls-1" d="M128,.9V40.22a71.56,71.56,0,0,0-8.63-1.41V0Q123.77.29,128,.9Z"/><path class="cls-1" d="M104.44,0V38.81a72,72,0,0,0-8.62,1.41V.9Q100.1.29,104.44,0Z"/><path class="cls-1" d="M104.44,185v38.82c-2.9-.18-5.77-.49-8.62-.9V183.64A70.08,70.08,0,0,0,104.44,185Z"/></g></g></svg>